<?xml version="1.0" encoding="UTF-8"?>
<svg xmlns="http://www.w3.org/2000/svg" xmlns:xlink="http://www.w3.org/1999/xlink" width="1134pt" height="1133.999944pt" viewBox="0 0 1134 1133.999944" version="1.2">
<defs>
<clipPath id="clip1">
  <path d="M 196.957031 284 L 936.894531 284 L 936.894531 1047.070312 L 196.957031 1047.070312 Z M 196.957031 284 "/>
</clipPath>
<clipPath id="clip2">
  <path d="M 518 284 L 936.898438 284 L 936.898438 1047.070312 L 518 1047.070312 Z M 518 284 "/>
</clipPath>
</defs>
<g id="surface1">
<path style=" stroke:none;fill-rule:nonzero;fill:rgb(0%,29.019165%,67.83905%);fill-opacity:1;" d="M 666.152344 296.613281 C 661.0625 300.144531 659.8125 307.136719 663.34375 312.230469 C 666.886719 317.320312 673.875 318.574219 678.96875 315.042969 C 679.105469 314.933594 729.53125 279.425781 771.957031 293.96875 C 777.824219 295.984375 784.210938 292.855469 786.226562 287 C 788.230469 281.132812 785.109375 274.746094 779.246094 272.730469 C 725.957031 254.460938 666.324219 296.484375 666.152344 296.613281 "/>
<path style=" stroke:none;fill-rule:nonzero;fill:rgb(85.099792%,85.099792%,85.099792%);fill-opacity:1;" d="M 460.378906 310.085938 C 449.984375 295 438.582031 276.03125 427.773438 253.058594 C 414.195312 224.222656 401.480469 188.964844 392.75 147.039062 L 392.707031 147.039062 C 392.070312 143.972656 392.378906 140.925781 393.429688 138.199219 C 397.160156 126.464844 428.632812 38.222656 495.128906 169.007812 C 507.570312 171.25 540.863281 168.394531 552.523438 78.976562 L 552.46875 78.964844 C 553.445312 71.515625 559.511719 65.96875 566.714844 65.394531 C 575.613281 64.335938 641.3125 59.230469 642.617188 141.371094 C 645.394531 148.121094 661.222656 173.222656 732.078125 121.691406 L 732.066406 121.667969 C 739.054688 116.585938 748.835938 118.136719 753.914062 125.128906 C 757.808594 130.484375 757.808594 137.488281 754.445312 142.75 L 666.523438 313.925781 C 618.742188 294.257812 567.394531 286.96875 514.472656 295.636719 C 495.804688 298.703125 477.742188 303.605469 460.378906 310.085938 "/>
<path style=" stroke:none;fill-rule:nonzero;fill:rgb(0%,29.019165%,67.83905%);fill-opacity:1;" d="M 460.378906 310.085938 C 454.578125 301.671875 448.46875 292.050781 442.324219 281.207031 L 683.335938 281.207031 L 666.523438 313.925781 C 618.742188 294.257812 567.394531 286.96875 514.472656 295.636719 C 495.804688 298.703125 477.742188 303.605469 460.378906 310.085938 "/>
<g clip-path="url(#clip1)" clip-rule="nonzero">
<path style=" stroke:none;fill-rule:evenodd;fill:rgb(85.099792%,85.099792%,85.099792%);fill-opacity:1;" d="M 579.441406 1046.980469 C 605.640625 1045.589844 1071.105469 1014.683594 898.679688 559.296875 L 898.710938 559.253906 C 898.402344 558.46875 898.054688 557.726562 897.652344 557.027344 C 654.601562 56.707031 200.984375 321.640625 198.226562 738.875 C 196.140625 755.871094 165.601562 1050.90625 577.617188 1047.035156 L 577.640625 1047.097656 C 578.253906 1047.097656 578.859375 1047.054688 579.441406 1046.980469 "/>
</g>
<g clip-path="url(#clip2)" clip-rule="nonzero">
<path style=" stroke:none;fill-rule:evenodd;fill:rgb(65.098572%,65.098572%,65.098572%);fill-opacity:1;" d="M 897.652344 557.027344 C 792.960938 341.523438 649.214844 267.996094 519.246094 287.464844 C 625.667969 303.53125 734.058594 385.085938 817.589844 557.027344 C 817.992188 557.726562 818.351562 558.46875 818.640625 559.253906 L 818.617188 559.296875 C 974.402344 970.71875 609.503906 1035.671875 518.28125 1045.398438 C 536.960938 1046.664062 556.722656 1047.234375 577.617188 1047.035156 L 577.640625 1047.097656 C 578.253906 1047.097656 578.859375 1047.054688 579.441406 1046.980469 C 605.640625 1045.589844 1071.105469 1014.683594 898.679688 559.296875 L 898.710938 559.253906 C 898.402344 558.46875 898.054688 557.726562 897.652344 557.027344 "/>
</g>
<path style=" stroke:none;fill-rule:evenodd;fill:rgb(100%,100%,100%);fill-opacity:1;" d="M 746.140625 665.773438 C 746.140625 616.28125 726.082031 571.464844 693.648438 539.023438 C 661.222656 506.589844 616.417969 486.523438 566.925781 486.523438 C 517.433594 486.523438 472.628906 506.589844 440.203125 539.023438 C 407.769531 571.464844 387.710938 616.28125 387.710938 665.773438 C 387.710938 715.28125 407.769531 760.09375 440.203125 792.539062 C 472.628906 824.972656 517.433594 845.035156 566.925781 845.035156 C 616.417969 845.035156 661.222656 824.972656 693.648438 792.539062 C 726.082031 760.09375 746.140625 715.28125 746.140625 665.773438 "/>
<path style=" stroke:none;fill-rule:evenodd;fill:rgb(45.098877%,45.098877%,45.098877%);fill-opacity:1;" d="M 566.925781 518.609375 C 607.550781 518.609375 644.335938 535.085938 670.957031 561.714844 C 697.59375 588.347656 714.066406 625.140625 714.066406 665.773438 C 714.066406 706.421875 697.59375 743.214844 670.957031 769.84375 C 644.335938 796.476562 607.550781 812.953125 566.925781 812.953125 C 526.289062 812.953125 489.503906 796.476562 462.882812 769.84375 C 436.257812 743.214844 419.785156 706.421875 419.785156 665.773438 C 419.785156 625.140625 436.257812 588.347656 462.882812 561.714844 C 489.503906 535.085938 526.289062 518.609375 566.925781 518.609375 "/>
<path style=" stroke:none;fill-rule:nonzero;fill:rgb(100%,100%,100%);fill-opacity:1;" d="M 628.722656 582.851562 L 628.722656 599.496094 L 592.296875 599.496094 C 592.765625 599.972656 593.21875 600.472656 593.675781 600.980469 C 594.726562 602.191406 595.722656 603.484375 596.65625 604.886719 C 597.65625 606.351562 598.546875 607.898438 599.332031 609.554688 C 599.765625 610.46875 600.15625 611.410156 600.539062 612.386719 L 628.722656 612.386719 L 628.722656 632.929688 L 603.03125 632.929688 C 602.671875 636.109375 602.035156 639.132812 601.101562 642.007812 C 599.816406 645.96875 598.015625 649.617188 595.691406 652.949219 C 593.410156 656.214844 590.683594 659.21875 587.535156 661.933594 C 584.394531 664.628906 580.84375 667.039062 576.898438 669.148438 L 576.863281 669.171875 C 572.984375 671.21875 568.773438 673.023438 564.222656 674.550781 C 561.410156 675.492188 558.484375 676.332031 555.449219 677.0625 L 559.523438 682.496094 L 559.523438 682.507812 C 560.996094 684.492188 562.597656 686.589844 564.304688 688.796875 C 565.898438 690.847656 567.722656 693.160156 569.757812 695.714844 L 569.777344 695.726562 C 571.679688 698.144531 573.617188 700.53125 575.601562 702.898438 C 577.714844 705.421875 579.769531 707.8125 581.796875 710.082031 L 581.851562 710.144531 C 583.917969 712.574219 585.753906 714.664062 587.367188 716.4375 C 589.03125 718.25 590.644531 719.925781 592.214844 721.464844 C 593.675781 722.910156 595.097656 724.222656 596.476562 725.390625 C 597.867188 726.578125 599.183594 727.621094 600.445312 728.519531 L 600.445312 728.53125 C 601.675781 729.359375 602.914062 730.113281 604.15625 730.78125 C 605.375 731.429688 606.617188 731.992188 607.859375 732.457031 L 607.941406 732.476562 C 609.183594 732.976562 610.511719 733.421875 611.898438 733.804688 C 613.257812 734.1875 614.773438 734.535156 616.40625 734.855469 L 619.757812 735.511719 L 619.25 738.875 L 617.667969 749.242188 L 617.203125 752.277344 L 614.136719 752.253906 C 609.875 752.234375 605.960938 752.136719 602.394531 751.980469 C 598.695312 751.832031 595.246094 751.597656 592.085938 751.308594 L 592.042969 751.308594 C 588.902344 751.003906 585.964844 750.589844 583.238281 750.078125 C 580.417969 749.550781 577.839844 748.914062 575.507812 748.179688 C 573.121094 747.417969 570.820312 746.492188 568.582031 745.390625 C 566.363281 744.296875 564.253906 743.046875 562.257812 741.632812 C 560.339844 740.285156 558.367188 738.695312 556.363281 736.882812 C 554.460938 735.164062 552.5625 733.253906 550.699219 731.164062 L 550.6875 731.164062 C 549.210938 729.570312 547.695312 727.863281 546.15625 726.050781 C 544.621094 724.234375 543.058594 722.324219 541.457031 720.320312 C 539.984375 718.496094 538.402344 716.5 536.675781 714.28125 C 534.902344 712.023438 533.28125 709.921875 531.859375 708.035156 L 531.871094 708.035156 C 530.535156 706.304688 528.910156 704.152344 527.160156 701.816406 C 523.671875 697.179688 523.128906 696.449219 522.683594 695.855469 L 522.671875 695.832031 C 520.988281 693.539062 519.660156 691.746094 518.589844 690.304688 C 516.96875 688.121094 515.84375 686.625 514.972656 685.46875 C 513.667969 683.757812 512.640625 682.421875 511.949219 681.550781 C 511.132812 680.535156 510.390625 679.609375 509.703125 678.804688 L 508.832031 676.492188 L 508.832031 666.0625 L 512.078125 665.765625 C 517.03125 665.308594 521.601562 664.691406 525.792969 663.917969 C 529.898438 663.15625 533.621094 662.242188 536.941406 661.171875 C 540.25 660.097656 543.199219 658.898438 545.796875 657.574219 C 548.289062 656.289062 550.464844 654.867188 552.320312 653.308594 L 552.332031 653.296875 C 554.199219 651.761719 555.789062 650.117188 557.113281 648.363281 C 558.417969 646.644531 559.46875 644.8125 560.242188 642.878906 C 561.070312 640.832031 561.6875 638.6875 562.101562 636.449219 C 562.300781 635.304688 562.449219 634.136719 562.546875 632.929688 L 505.128906 632.929688 L 505.128906 612.386719 L 558.132812 612.386719 L 558.015625 612.207031 C 557.007812 610.699219 555.820312 609.34375 554.472656 608.121094 L 554.460938 608.121094 C 553.0625 606.871094 551.417969 605.746094 549.5625 604.78125 C 547.652344 603.792969 545.511719 602.964844 543.132812 602.308594 L 543.09375 602.289062 C 540.664062 601.585938 537.90625 601.054688 534.820312 600.695312 C 531.699219 600.335938 528.261719 600.15625 524.507812 600.15625 C 522.386719 600.15625 521.144531 600.164062 520.414062 600.175781 C 519.269531 600.195312 518.175781 600.21875 517.179688 600.25 C 516.363281 600.269531 515.554688 600.304688 514.675781 600.335938 C 514.070312 600.367188 513.445312 600.398438 512.703125 600.472656 L 512.691406 600.472656 C 509.871094 600.695312 509.445312 600.738281 509.023438 600.78125 L 509.011719 600.78125 L 505.128906 601.128906 L 505.128906 579.285156 L 628.722656 579.285156 L 628.722656 582.851562 "/>
</g>
</svg>
